<?xml version='1.0' encoding='UTF-8'?>
<mxfile version="1.0" encoding="UTF-8"><diagram name="ArchiMate Model" id="archimate_diagram"><mxGraphModel dx="1050" dy="522" grid="1" gridSize="10"><root><mxCell id="0" /><mxCell id="1" parent="0" /><mxCell id="label_Motivation_Layer" value="Motivation Layer" style="text;html=1;align=center;verticalAlign=middle;resizable=0;points=[];" vertex="1" parent="1"><mxGeometry x="50" y="60" width="200" height="30" as="geometry" /></mxCell><mxCell id="elem_m1" value="Utilisateurs" style="shape=archimate_actor;whiteSpace=wrap;html=1;" vertex="1" parent="1"><mxGeometry x="100" y="100" width="120" height="60" as="geometry" /></mxCell><mxCell id="elem_m2" value="Collaboration efficace" style="shape=archimate_driver;whiteSpace=wrap;html=1;" vertex="1" parent="1"><mxGeometry x="250" y="100" width="120" height="60" as="geometry" /></mxCell><mxCell id="elem_m3" value="Améliorer la gestion de projets" style="shape=archimate_goal;whiteSpace=wrap;html=1;" vertex="1" parent="1"><mxGeometry x="400" y="100" width="120" height="60" as="geometry" /></mxCell><mxCell id="elem_m4" value="Projets livrés à temps" style="shape=archimate_outcome;whiteSpace=wrap;html=1;" vertex="1" parent="1"><mxGeometry x="550" y="100" width="120" height="60" as="geometry" /></mxCell><mxCell id="elem_m5" value="Intégration avec d'autres outils" style="shape=archimate_rectangle;whiteSpace=wrap;html=1;" vertex="1" parent="1"><mxGeometry x="700" y="100" width="120" height="60" as="geometry" /></mxCell><mxCell id="conn_elem_m2_elem_m3" style="endArrow=archimate_influence_relationship;html=1;" edge="1" source="elem_m2" target="elem_m3" parent="1"><mxGeometry relative="1" as="geometry" /></mxCell><mxCell id="conn_elem_m3_elem_m4" style="endArrow=archimate_assignment_relationship;html=1;" edge="1" source="elem_m3" target="elem_m4" parent="1"><mxGeometry relative="1" as="geometry" /></mxCell><mxCell id="conn_elem_m5_elem_m3" style="endArrow=archimate_influence_relationship;html=1;" edge="1" source="elem_m5" target="elem_m3" parent="1"><mxGeometry relative="1" as="geometry" /></mxCell><mxCell id="label_Strategy_Layer" value="Strategy Layer" style="text;html=1;align=center;verticalAlign=middle;resizable=0;points=[];" vertex="1" parent="1"><mxGeometry x="50" y="360" width="200" height="30" as="geometry" /></mxCell><mxCell id="elem_s1" value="Gestion de projets" style="shape=archimate_rectangle;whiteSpace=wrap;html=1;" vertex="1" parent="1"><mxGeometry x="100" y="400" width="120" height="60" as="geometry" /></mxCell><mxCell id="elem_s2" value="API d'intégration" style="shape=archimate_rectangle;whiteSpace=wrap;html=1;" vertex="1" parent="1"><mxGeometry x="250" y="400" width="120" height="60" as="geometry" /></mxCell><mxCell id="elem_s3" value="Développement de fonctionnalités" style="shape=archimate_rectangle;whiteSpace=wrap;html=1;" vertex="1" parent="1"><mxGeometry x="400" y="400" width="120" height="60" as="geometry" /></mxCell><mxCell id="conn_elem_s1_elem_s3" style="endArrow=archimate_assignment_relationship;html=1;" edge="1" source="elem_s1" target="elem_s3" parent="1"><mxGeometry relative="1" as="geometry" /></mxCell><mxCell id="conn_elem_s2_elem_s1" style="endArrow=archimate_assignment_relationship;html=1;" edge="1" source="elem_s2" target="elem_s1" parent="1"><mxGeometry relative="1" as="geometry" /></mxCell><mxCell id="label_Business_Layer" value="Business Layer" style="text;html=1;align=center;verticalAlign=middle;resizable=0;points=[];" vertex="1" parent="1"><mxGeometry x="50" y="660" width="200" height="30" as="geometry" /></mxCell><mxCell id="elem_b1" value="Chef de projet" style="shape=archimate_actor;whiteSpace=wrap;html=1;" vertex="1" parent="1"><mxGeometry x="100" y="700" width="120" height="60" as="geometry" /></mxCell><mxCell id="elem_b2" value="Membre de l'équipe" style="shape=archimate_rectangle;whiteSpace=wrap;html=1;" vertex="1" parent="1"><mxGeometry x="250" y="700" width="120" height="60" as="geometry" /></mxCell><mxCell id="elem_b3" value="Création de projet" style="shape=archimate_process;whiteSpace=wrap;html=1;" vertex="1" parent="1"><mxGeometry x="400" y="700" width="120" height="60" as="geometry" /></mxCell><mxCell id="elem_b4" value="Assignation de tâches" style="shape=archimate_process;whiteSpace=wrap;html=1;" vertex="1" parent="1"><mxGeometry x="550" y="700" width="120" height="60" as="geometry" /></mxCell><mxCell id="elem_b5" value="Tableau de bord analytique" style="shape=archimate_service;whiteSpace=wrap;html=1;" vertex="1" parent="1"><mxGeometry x="700" y="700" width="120" height="60" as="geometry" /></mxCell><mxCell id="elem_b6" value="Notifications en temps réel" style="shape=archimate_service;whiteSpace=wrap;html=1;" vertex="1" parent="1"><mxGeometry x="850" y="700" width="120" height="60" as="geometry" /></mxCell><mxCell id="conn_elem_b1_elem_b3" style="endArrow=archimate_assignment_relationship;html=1;" edge="1" source="elem_b1" target="elem_b3" parent="1"><mxGeometry relative="1" as="geometry" /></mxCell><mxCell id="conn_elem_b2_elem_b4" style="endArrow=archimate_assignment_relationship;html=1;" edge="1" source="elem_b2" target="elem_b4" parent="1"><mxGeometry relative="1" as="geometry" /></mxCell><mxCell id="conn_elem_b1_elem_b5" style="endArrow=archimate_serving_relationship;html=1;" edge="1" source="elem_b1" target="elem_b5" parent="1"><mxGeometry relative="1" as="geometry" /></mxCell><mxCell id="conn_elem_b2_elem_b6" style="endArrow=archimate_serving_relationship;html=1;" edge="1" source="elem_b2" target="elem_b6" parent="1"><mxGeometry relative="1" as="geometry" /></mxCell><mxCell id="label_Application_Layer" value="Application Layer" style="text;html=1;align=center;verticalAlign=middle;resizable=0;points=[];" vertex="1" parent="1"><mxGeometry x="50" y="960" width="200" height="30" as="geometry" /></mxCell><mxCell id="elem_a1" value="Application SaaS TeamFlow" style="shape=archimate_application_component;whiteSpace=wrap;html=1;" vertex="1" parent="1"><mxGeometry x="100" y="1000" width="120" height="60" as="geometry" /></mxCell><mxCell id="elem_a2" value="Gestion des projets" style="shape=archimate_rectangle;whiteSpace=wrap;html=1;" vertex="1" parent="1"><mxGeometry x="250" y="1000" width="120" height="60" as="geometry" /></mxCell><mxCell id="elem_a3" value="Interface utilisateur" style="shape=archimate_interface;whiteSpace=wrap;html=1;" vertex="1" parent="1"><mxGeometry x="400" y="1000" width="120" height="60" as="geometry" /></mxCell><mxCell id="elem_a4" value="Service de chat intégré" style="shape=archimate_service;whiteSpace=wrap;html=1;" vertex="1" parent="1"><mxGeometry x="550" y="1000" width="120" height="60" as="geometry" /></mxCell><mxCell id="elem_a5" value="Données de projet" style="shape=archimate_data_object;whiteSpace=wrap;html=1;" vertex="1" parent="1"><mxGeometry x="700" y="1000" width="120" height="60" as="geometry" /></mxCell><mxCell id="conn_elem_a1_elem_a2" style="endArrow=archimate_association_relationship;html=1;" edge="1" source="elem_a1" target="elem_a2" parent="1"><mxGeometry relative="1" as="geometry" /></mxCell><mxCell id="conn_elem_a1_elem_a3" style="endArrow=archimate_association_relationship;html=1;" edge="1" source="elem_a1" target="elem_a3" parent="1"><mxGeometry relative="1" as="geometry" /></mxCell><mxCell id="conn_elem_a1_elem_a4" style="endArrow=archimate_association_relationship;html=1;" edge="1" source="elem_a1" target="elem_a4" parent="1"><mxGeometry relative="1" as="geometry" /></mxCell><mxCell id="conn_elem_a2_elem_a5" style="endArrow=archimate_access_relationship;html=1;" edge="1" source="elem_a2" target="elem_a5" parent="1"><mxGeometry relative="1" as="geometry" /></mxCell><mxCell id="label_Technology_Layer" value="Technology Layer" style="text;html=1;align=center;verticalAlign=middle;resizable=0;points=[];" vertex="1" parent="1"><mxGeometry x="50" y="1260" width="200" height="30" as="geometry" /></mxCell><mxCell id="elem_t1" value="Serveur cloud" style="shape=archimate_node;whiteSpace=wrap;html=1;" vertex="1" parent="1"><mxGeometry x="100" y="1300" width="120" height="60" as="geometry" /></mxCell><mxCell id="elem_t2" value="Service de sauvegarde" style="shape=archimate_service;whiteSpace=wrap;html=1;" vertex="1" parent="1"><mxGeometry x="250" y="1300" width="120" height="60" as="geometry" /></mxCell><mxCell id="elem_t3" value="Réseau de communication" style="shape=archimate_communication_network;whiteSpace=wrap;html=1;" vertex="1" parent="1"><mxGeometry x="400" y="1300" width="120" height="60" as="geometry" /></mxCell><mxCell id="conn_elem_t1_elem_t2" style="endArrow=archimate_serving_relationship;html=1;" edge="1" source="elem_t1" target="elem_t2" parent="1"><mxGeometry relative="1" as="geometry" /></mxCell><mxCell id="conn_elem_t1_elem_a1" style="endArrow=archimate_serving_relationship;html=1;" edge="1" source="elem_t1" target="elem_a1" parent="1"><mxGeometry relative="1" as="geometry" /></mxCell><mxCell id="conn_elem_t3_elem_a4" style="endArrow=archimate_serving_relationship;html=1;" edge="1" source="elem_t3" target="elem_a4" parent="1"><mxGeometry relative="1" as="geometry" /></mxCell></root></mxGraphModel></diagram></mxfile>